inDegrees=yes
name=ik_lifting_orientations
DataType=double
version=3
OpenSimVersion=4.5-2024-01-10-34fd6af
endheader
time	pelvis_tilt	pelvis_list	pelvis_rotation	pelvis_tx	pelvis_ty	pelvis_tz	hip_flexion_r	hip_adduction_r	hip_rotation_r	knee_angle_r	knee_angle_r_beta	ankle_angle_r	subtalar_angle_r	mtp_angle_r	hip_flexion_l	hip_adduction_l	hip_rotation_l	knee_angle_l	knee_angle_l_beta	ankle_angle_l	subtalar_angle_l	mtp_angle_l	lumbar_extension	lumbar_bending	lumbar_rotation	arm_flex_r	arm_add_r	arm_rot_r	elbow_flex_r	pro_sup_r	wrist_flex_r	wrist_dev_r	arm_flex_l	arm_add_l	arm_rot_l	elbow_flex_l	pro_sup_l	wrist_flex_l	wrist_dev_l
0.02	0.001338436519405666	-0.003088694664178156	-87.58984748899806	0	0.9399999998679526	0	15.59321698843821	-7.319443569658833	0	21.05850586634718	0.3675402629182992	-4.249558145378462	0	0	15.59321698843821	-7.319443569658833	0	21.05850586634718	0.3675402629182992	-4.249558145378462	0	0	0.00336993734863325	-0.0001941148513265197	0.0002259333238228725	-0.2488804542534459	-0.05651117022749821	0.004040500622721255	0.5010498109538581	60.35946818324063	0	0	0	-2.315752717620961	0	29.80736344042529	60.35946818324063	0	0
0.03	0.00818217381252687	-0.004480529232596005	-87.57205727547415	0	0.9399999998679526	0	15.60375002508745	-7.322299372099326	0	21.07444918523658	0.3678185263266147	-4.250596794750884	0	0	15.60375002508745	-7.322299372099326	0	21.07444918523658	0.3678185263266147	-4.250596794750884	0	0	0.6173450122123377	-0.6054327443957442	-0.5671846158678628	-1.22815593086037	0.02457543869657191	1.07211986939355	0.9576496833939436	60.33643809474692	0	0	0	-2.317753618759685	0	29.83022779784704	60.33643809474692	0	0
0.04	-8.003809277550911e-05	-0.002697192752684659	-87.5786178614222	0	0.9399999998679526	0	15.61252742970059	-7.324671200046607	0	21.08773596817457	0.3680504244358803	-4.251458511629477	0	0	15.61252742970059	-7.324671200046607	0	21.08773596817457	0.3680504244358803	-4.251458511629477	0	0	1.099177912286424	-1.182636568593108	0.08039437871230999	-1.69650035301353	0.6217484597308638	0.4570579998592502	0.9440137828664681	60.31728461855919	0	0	0	-2.319426502826052	0	29.84924414281839	60.31728461855919	0	0
0.05	-0.002993843315976962	0.004550355199024931	-87.57458992849003	0	0.9399999998679526	0	15.62437685126133	-7.327887631956605	0	21.10564596355134	0.368363012824222	-4.252628333583738	0	0	15.62437685126133	-7.327887631956605	0	21.10564596355134	0.368363012824222	-4.252628333583738	0	0	1.103375691646379	-1.185840244724797	0.07553250315949547	-1.698280620298126	0.6439416207775917	1.158264451687382	1.214629101878169	60.29136980301397	0	0	0	-2.321673225975077	0	29.87497242371504	60.29136980301397	0	0
0.06	-0.003428544399696616	0.01180889523645074	-87.58021289166761	0	0.9399999998679526	0	15.63376179858929	-7.33043233262033	0	21.11982542312359	0.3686104910799111	-4.253553440276835	0	0	15.63376179858929	-7.33043233262033	0	21.11982542312359	0.3686104910799111	-4.253553440276835	0	0	1.115641627826996	-1.179516884248917	0.08217110398804463	-1.661100901247988	0.2360089737147592	1.792461588182582	0.8322061391950788	60.27086073236836	0	0	0	-2.323454250757166	0	29.89533417976482	60.27086073236836	0	0
0.07000000000000001	0.00816509055545798	-0.01543373377120711	-87.5766933079225	0	0.9399999998679526	0	15.66604986675912	-7.339170333603589	0	21.16855295415813	0.3694609469328316	-4.256726496929657	0	0	15.66604986675912	-7.339170333603589	0	21.16855295415813	0.3694609469328316	-4.256726496929657	0	0	1.08464349008659	-1.199338274777462	0.08145352404908342	-1.954663205729698	-0.6551427772163279	1.713021697308638	2.22087985936774	60.20039121133934	0	0	0	-2.329583006812512	0	29.96529955866438	60.20039121133934	0	0
0.08	-0.0001213318724107268	0.002045402087676984	-87.57443780494188	0	0.9399999998679526	0	15.68011651481874	-7.342969386306059	0	21.18976709106511	0.3698312034698273	-4.258105239056383	0	0	15.68011651481874	-7.342969386306059	0	21.18976709106511	0.3698312034698273	-4.258105239056383	0	0	3.395868833946331	-1.253725253080472	0.2852520111284481	-4.177788009225171	-0.9761079395163711	2.182760968368187	1.798339440073841	60.16974038555902	0	0	0	-2.332260240488992	0	29.9957319859151	60.16974038555902	0	0
0.09	0.007268613842409273	0.007791518200193947	-87.58070840263214	0	0.9399999998679526	0	15.68873588591432	-7.345289134916944	0	21.20276647079201	0.3700580854467787	-4.258946181163293	0	0	15.68873588591432	-7.345289134916944	0	21.20276647079201	0.3700580854467787	-4.258946181163293	0	0	3.997897419941576	-1.866888698309101	-0.2476425418704367	-4.742908946108307	-0.4767538476545637	2.955075767891766	1.973534277126442	60.15099764853371	0	0	0	-2.333906331985733	0	30.01434188815276	60.15099764853371	0	0
0.1	0.003799746590190339	-0.02213201138973364	-87.57235767256471	0	0.9399999998679526	0	15.69784788661716	-7.347748733367302	0	21.2164936698987	0.3702976702682672	-4.25983844535935	0	0	15.69784788661716	-7.347748733367302	0	21.2164936698987	0.3702976702682672	-4.25983844535935	0	0	3.969517046078607	-1.870393274512384	-0.2474008619517651	-5.214440800275089	-1.056958161652033	3.447334183979394	2.718578103972196	60.1311561302248	0	0	0	-2.335640745103146	0	30.03404230780894	60.1311561302248	0	0
0.11	-0.001568759949519579	0.003753943226273933	-87.57931202068539	0	0.9399999998679526	0	15.70676410810046	-7.350146574254754	0	21.22992866837112	0.3705321552266113	-4.260707297638533	0	0	15.70676410810046	-7.350146574254754	0	21.22992866837112	0.3705321552266113	-4.260707297638533	0	0	5.10476927385397	-3.040094706140872	-0.1098907959217885	-6.250712272481934	0.1155623583936108	3.569118058616334	2.629232707594417	60.11178171236196	0	0	0	-2.33734400273152	0	30.05327970205783	60.11178171236196	0	0
0.12	0.5534127365711845	-0.5800139723475741	-88.31519910458634	0	0.9399999998679526	0	15.72864218115518	-7.355953238434481	0	21.26294164813092	0.3711083404193142	-4.262802106278233	0	0	15.72864218115518	-7.355953238434481	0	21.26294164813092	0.3711083404193142	-4.262802106278233	0	0	5.129384898780834	-2.960530844245246	0.176449027217809	-7.371575307563029	-1.179923677211572	4.55998889623597	3.364697342705901	60.06456470030508	0	0	0	-2.341569513508079	0	30.10016892338895	60.06456470030508	0	0
0.13	0.5515620735497961	-0.5666681301347365	-88.3375256455552	0	0.9399999998679526	0	15.73590123650449	-7.357908965224046	0	21.27385631157586	0.3712988372331754	-4.263510823818569	0	0	15.73590123650449	-7.357908965224046	0	21.27385631157586	0.3712988372331754	-4.263510823818569	0	0	5.181431259346172	-2.95649961635424	0.2074795547363167	-7.377697424585573	-1.666670907664543	5.197139392950897	2.865322102733064	60.04878485063075	0	0	0	-2.342952454234261	0	30.11583710853942	60.04878485063075	0	0
0.14	-0.4675869320206079	-1.821271676835654	-88.21307103896152	0	0.9399999998679526	0	15.74720748347933	-7.360919655758372	0	21.29088975722376	0.3715961269426908	-4.264598406999539	0	0	15.74720748347933	-7.360919655758372	0	21.29088975722376	0.3715961269426908	-4.264598406999539	0	0	3.953040074517882	-1.904782665380442	-0.0298263765815209	-7.374518539809997	-1.677201753010883	5.198901267771409	2.850856377242769	60.02436310395431	0	0	0	-2.34513413991107	0	30.14008879909893	60.02436310395431	0	0
0.15	-0.4742440419083347	-1.815985228575528	-88.21461564739825	0	0.9399999998679526	0	15.77985851880826	-7.369669907413079	0	21.33993046445195	0.3724520487513293	-4.267761748629257	0	0	15.77985851880826	-7.369669907413079	0	21.33993046445195	0.3724520487513293	-4.267761748629257	0	0	2.235047167794713	-1.278501181133776	0.3556997504177255	-5.668635285902315	-2.249096072473223	4.692601842443866	2.862930860593003	59.95360003648869	0	0	0	-2.35137082669423	0	30.2103555804774	59.95360003648869	0	0
0.16	-0.03874578031592923	-3.454456225006266	-90.10591295898074	0	0.9399999998679526	0	15.80899119133519	-7.377382608895049	0	21.38370853383355	0.3732161202022047	-4.270538536191634	0	0	15.80899119133519	-7.377382608895049	0	21.38370853383355	0.3732161202022047	-4.270538536191634	0	0	0.1160461401541183	-1.098039061396697	1.638134928488692	-5.229626839065813	-2.895850774346619	5.820918078334951	2.953037375858443	59.89087831227921	0	0	0	-2.356993804717398	0	30.27264529001403	59.89087831227921	0	0
0.17	-0.04127880806789559	-3.467346562944689	-90.11643054920415	0	0.9399999998679526	0	15.83758732948667	-7.38502053173313	0	21.42654222636357	0.3739637091676404	-4.273294917031883	0	0	15.83758732948667	-7.38502053173313	0	21.42654222636357	0.3739637091676404	-4.273294917031883	0	0	-2.81396452995664	-0.516035708870118	1.994073084261403	-2.056194271426664	-2.439930452822036	5.362429985719545	2.930361380574989	59.82907181225064	0	0	0	-2.362465712920544	0	30.33402172094914	59.82907181225064	0	0
0.18	0.04548694471059739	-4.80879668210842	-90.33255285056818	0	0.9399999998679526	0	15.96828591276099	-7.411875726535508	0	21.63441053166795	0.3775916955057426	-4.282291339775646	0	0	15.96828591276099	-7.411875726535508	0	21.63441053166795	0.3775916955057426	-4.282291339775646	0	0	-4.971117705048901	-0.1141634820590144	5.037410096428819	-1.508101347315735	-2.869264041890574	3.609451319642075	3.121713230290054	59.58201444560758	0	0	0	-2.39442721936079	0	30.57997038470843	59.58201444560758	0	0
0.19	-0.573766889938675	-5.242198036660221	-90.75861683739586	0	0.9399999998679526	0	16.22226140563323	-7.462913144792478	0	22.03778696231011	0.384631942345391	-4.299247800033221	0	0	16.22226140563323	-7.462913144792478	0	22.03778696231011	0.384631942345391	-4.299247800033221	0	0	-10.68811050657046	2.192313078745459	11.05848528822698	3.413008275360935	-4.855460816235444	-0.6608115542241039	2.673391137330883	59.10630686952043	0	0	0	-2.457411254533952	0	31.05363133823498	59.10630686952043	0	0
0.2	-0.08365802848000978	-5.869400566687691	-91.48315912532503	0	0.9399999998679526	0	16.23460641631819	-7.466182134520426	0	22.0558811274243	0.3849477451020331	-4.300422002081307	0	0	16.23460641631819	-7.466182134520426	0	22.0558811274243	0.3849477451020331	-4.300422002081307	0	0	-12.530132513855	1.347144870743769	12.76725170360403	4.426416556150435	-4.705439472790097	-0.9597774523242021	1.797283148319461	59.07993358938232	0	0	0	-2.459790818721237	0	31.07982643215928	59.07993358938232	0	0
